<?xml version="1.0" standalone="no"?>
<!DOCTYPE svg PUBLIC "-//W3C//DTD SVG 20010904//EN"
 "http://www.w3.org/TR/2001/REC-SVG-20010904/DTD/svg10.dtd">
<svg version="1.0" xmlns="http://www.w3.org/2000/svg"
 width="256.000000pt" height="256.000000pt" viewBox="0 0 256.000000 256.000000"
 preserveAspectRatio="xMidYMid meet">

<g transform="translate(0.000000,256.000000) scale(0.100000,-0.100000)"
fill="#000000" stroke="none">
<path d="M1195 2013 c-11 -3 -24 -12 -31 -21 -9 -13 -12 -13 -25 0 -12 14 -20
13 -74 -2 -63 -18 -173 -70 -215 -102 -50 -38 -104 -70 -91 -54 8 9 11 19 7
23 -3 3 -6 1 -6 -6 0 -8 -7 -11 -15 -7 -12 4 -14 0 -10 -17 5 -17 -10 -38 -70
-101 -42 -43 -79 -75 -82 -72 -4 3 6 19 20 34 27 28 35 52 19 52 -11 0 -49
-41 -42 -45 3 -2 2 -6 -2 -10 -16 -16 0 26 17 45 16 18 17 23 5 30 -21 14 -27
12 -34 -6 -6 -15 -4 -15 10 -3 16 13 16 12 4 -8 -8 -12 -18 -19 -22 -17 -11 7
-71 -122 -93 -198 -9 -32 -22 -102 -30 -155 -9 -68 -13 -84 -14 -53 -2 101 35
252 92 371 25 50 29 65 17 64 -9 0 -20 -3 -25 -6 -6 -3 -30 -7 -55 -8 -25 -2
-51 -8 -58 -13 -9 -8 -11 -7 -6 6 3 9 2 16 -4 16 -6 0 -13 -6 -15 -12 -3 -7
-6 -4 -7 7 -1 18 -1 19 -11 2 -5 -9 -7 -22 -3 -29 4 -6 3 -8 -4 -4 -15 9 -70
-139 -94 -254 -26 -124 -21 -325 11 -445 21 -81 84 -223 121 -275 11 -15 20
-30 20 -33 0 -3 -18 -8 -40 -12 -24 -4 -46 -15 -55 -28 -17 -24 -21 -133 -6
-139 19 -6 -8 -101 -35 -123 -35 -28 -24 -48 44 -78 310 -139 1449 -151 1907
-21 104 29 147 80 90 106 -21 9 -25 18 -25 54 0 24 -5 45 -12 48 -10 5 -10 7
0 12 7 3 12 26 12 59 0 65 -6 82 -34 97 -19 9 -18 8 3 -13 l25 -23 -72 -22
c-40 -12 -80 -21 -89 -19 -10 1 -24 -2 -31 -8 -7 -5 -31 -7 -55 -4 l-42 6 3
-70 c2 -45 0 -69 -7 -69 -7 0 -11 25 -11 65 l0 65 -27 -6 c-16 -4 -57 -8 -93
-9 -36 -2 -72 -5 -80 -8 -31 -12 -145 -14 -162 -4 -12 8 -23 8 -41 -2 -25 -13
-54 -12 -667 14 -136 6 -291 20 -385 35 -87 14 -187 43 -186 55 0 14 100 42
176 50 51 6 65 11 75 30 7 13 9 29 4 37 -4 7 3 4 15 -7 22 -19 22 -19 2 -27
-22 -8 -30 -30 -8 -24 6 3 39 7 72 10 l60 6 -69 -28 c-38 -15 -71 -33 -74 -40
-11 -34 162 -67 434 -83 392 -23 954 25 954 80 0 12 -39 35 -47 28 -2 -3 5 -8
16 -12 29 -9 26 -23 -6 -31 -58 -12 -67 -13 -40 -2 27 12 37 28 16 28 -6 0
-20 -5 -32 -12 -28 -15 -157 -27 -157 -14 0 9 -204 0 -238 -10 -16 -5 -16 -5
0 5 9 7 48 14 85 16 37 3 85 7 105 10 21 3 40 0 44 -6 7 -13 74 -5 106 12 28
15 8 35 -53 50 -45 12 -49 15 -49 42 0 22 -4 28 -15 23 -10 -4 -19 5 -28 27
-15 36 -11 78 5 55 7 -10 8 -8 4 5 -3 9 8 47 25 84 16 36 39 100 49 142 11 42
18 60 15 41 -16 -138 -16 -191 0 -274 10 -48 15 -97 13 -110 -5 -23 -3 -23
106 -30 120 -8 147 -11 217 -24 l46 -9 25 41 c104 166 151 331 151 526 0 118
-10 187 -44 298 -24 81 -91 221 -96 204 -4 -9 -9 -10 -17 -3 -9 8 -13 7 -13
-4 0 -8 4 -12 9 -9 4 3 8 -1 8 -8 0 -9 3 -9 10 2 5 8 10 10 10 4 0 -5 -7 -19
-15 -30 -9 -11 -13 -13 -10 -4 4 12 -5 15 -50 15 -50 0 -54 -2 -50 -20 3 -11
2 -14 -1 -7 -3 6 -10 10 -15 7 -5 -4 -6 1 -3 10 4 9 2 15 -4 13 -6 -2 -18 6
-26 17 -8 11 2 -15 23 -58 52 -105 83 -222 87 -332 l3 -90 -9 86 c-13 132 -93
371 -120 354 -5 -3 -7 0 -5 7 3 8 0 22 -8 32 -12 17 -14 17 -37 -2 -22 -18
-21 -50 2 -36 7 5 8 2 3 -5 -4 -7 2 -22 16 -37 12 -13 18 -24 12 -24 -5 0 -18
9 -28 20 -10 11 -24 20 -31 20 -7 0 -26 19 -42 43 -17 23 -42 53 -56 66 -14
14 -26 32 -26 40 0 11 -3 12 -8 4 -5 -8 -14 -6 -32 8 l-25 20 25 -6 c21 -5 22
-4 7 5 -9 6 -21 9 -26 6 -14 -9 -42 5 -34 17 4 6 0 8 -10 4 -9 -3 -17 -2 -19
2 -5 13 -100 62 -158 82 -62 21 -96 24 -105 9 -9 -15 -25 -12 -25 4 0 22 -141
35 -205 19z m225 -61 c75 -2 134 -54 140 -122 7 -78 -9 -91 -39 -32 -11 20
-20 33 -21 29 0 -4 16 -38 35 -75 19 -37 37 -82 41 -99 8 -41 -19 -130 -51
-168 l-26 -30 27 43 c15 23 25 45 22 48 -3 2 -13 -7 -22 -20 -17 -27 -40 -26
-50 1 -5 13 3 27 53 89 11 14 -22 54 -44 54 -23 0 -37 -38 -33 -90 1 -27 0
-46 -4 -43 -5 2 -8 -1 -8 -7 0 -6 -6 -8 -12 -4 -7 4 -2 -3 11 -16 23 -23 51
-78 51 -102 0 -7 -10 -18 -22 -23 -49 -22 -59 -54 -89 -271 -15 -115 -28 -217
-29 -227 0 -11 -4 -15 -12 -11 -8 5 -9 2 -5 -9 3 -9 1 -19 -5 -23 -7 -4 -6 -9
3 -15 9 -6 10 -9 2 -9 -6 0 -15 -20 -19 -45 -12 -82 -48 -66 -53 23 -1 7 -5
11 -9 8 -5 -3 -9 1 -9 9 0 8 3 15 7 15 4 0 5 12 2 27 -5 25 -6 25 -13 8 -7
-17 -8 -16 -8 7 -1 14 5 29 12 31 8 4 7 6 -4 6 -12 1 -21 37 -42 184 -15 100
-32 198 -37 218 -12 44 -46 89 -66 89 -31 0 -2 78 44 118 15 12 20 20 10 17
-17 -7 -18 -3 -33 86 -9 55 -27 65 -61 34 -20 -18 -25 -28 -16 -32 6 -2 12
-10 12 -17 0 -7 8 -21 19 -32 20 -22 23 -65 5 -71 -7 -2 -21 8 -33 23 -29 37
-26 17 5 -31 l25 -40 -25 30 c-34 40 -60 128 -52 178 4 22 17 58 31 81 25 43
51 106 39 93 -4 -4 -17 -23 -29 -43 l-22 -37 -7 27 c-9 37 9 98 38 125 47 44
104 50 376 43z m-427 -143 l2 -56 -27 20 c-17 12 -49 22 -82 25 -69 6 -118
-18 -195 -91 -29 -29 -49 -43 -43 -32 18 34 134 142 182 170 37 20 56 25 103
23 l59 -3 1 -56z m730 40 c56 -29 103 -68 157 -131 l45 -53 -53 47 c-96 86
-187 110 -262 69 l-35 -18 -1 53 -2 54 55 0 c35 0 68 -7 96 -21z m270 -122
c-2 -4 -10 -3 -17 2 -7 6 -15 10 -17 8 -2 -1 2 4 10 10 12 10 16 10 22 1 4 -7
5 -16 2 -21z m-1484 1 c-16 -31 -16 -31 -23 -13 -3 9 -2 14 3 11 5 -3 11 1 15
9 3 8 8 15 11 15 3 0 0 -10 -6 -22z m1321 -12 l35 -16 -45 6 c-25 3 -51 7 -58
10 -7 2 -11 0 -8 -5 3 -4 27 -11 54 -14 73 -9 119 -35 137 -80 21 -53 19 -64
-14 -70 -37 -8 -91 -55 -116 -101 -16 -29 -32 -41 -87 -62 -37 -14 -70 -30
-74 -35 -3 -5 -10 -6 -16 -3 -6 4 -8 2 -4 -4 14 -24 -14 -20 -33 4 -12 15 -21
23 -21 18 -1 -16 -29 40 -30 58 0 24 31 99 39 94 3 -2 6 23 6 57 0 39 4 62 13
64 6 3 12 0 12 -7 0 -6 -4 -8 -10 -5 -6 3 -10 -4 -10 -17 0 -19 2 -20 10 -8
22 32 31 50 23 49 -22 -4 -25 3 -7 17 10 8 12 12 4 8 -10 -5 -8 1 5 16 42 48
122 59 195 26z m-1007 7 c-7 -2 -19 -2 -25 0 -7 3 -2 5 12 5 14 0 19 -2 13 -5z
m1397 -13 c6 -11 8 -20 6 -20 -3 0 -10 9 -16 20 -6 11 -8 20 -6 20 3 0 10 -9
16 -20z m-1400 -7 c11 3 18 1 14 -4 -3 -5 1 -9 8 -9 43 0 122 -138 134 -233 5
-35 1 -48 -20 -76 -14 -19 -22 -39 -19 -45 4 -6 -2 -3 -13 6 -11 9 -48 27 -84
40 -58 21 -68 29 -101 78 -33 51 -69 78 -122 94 -16 5 -16 8 -2 43 22 54 93
103 147 103 13 0 17 4 12 13 -5 8 -3 8 9 -2 9 -7 26 -11 37 -8z m1208 -28 c-3
-3 -9 2 -12 12 -6 14 -5 15 5 6 7 -7 10 -15 7 -18z m-528 -49 c0 -3 -4 -8 -10
-11 -5 -3 -10 -1 -10 4 0 6 5 11 10 11 6 0 10 -2 10 -4z m-907 -216 c-3 -11
-9 -20 -14 -20 -5 0 -9 9 -9 20 0 11 6 20 14 20 9 0 12 -7 9 -20z m-71 -70
c-5 -70 9 -130 31 -130 6 0 4 -6 -5 -12 -14 -12 -15 -19 -2 -68 21 -80 86
-207 140 -270 l46 -55 -53 55 c-64 66 -103 135 -140 245 l-27 80 -38 4 -39 3
35 13 35 12 3 84 c2 80 6 109 15 109 3 0 2 -31 -1 -70z m1531 -30 l2 -93 35
-12 35 -13 -39 -3 c-39 -4 -40 -4 -61 -74 -36 -119 -127 -265 -190 -305 -11
-7 -2 7 20 31 84 91 130 175 159 286 12 44 12 60 4 71 -10 11 -8 16 5 23 14 8
17 26 17 101 0 118 10 108 13 -12z m-918 -9 c-8 -37 -107 -240 -122 -253 -10
-8 -13 -6 -13 10 0 21 76 265 92 296 10 19 11 19 30 -4 13 -16 17 -32 13 -49z
m440 -259 c-11 -11 -33 22 -86 132 -32 66 -59 131 -59 143 0 12 10 29 22 37
22 16 22 16 75 -146 29 -89 51 -164 48 -166z m-975 257 c0 -11 -4 -17 -10 -14
-5 3 -10 13 -10 21 0 8 5 14 10 14 6 0 10 -9 10 -21z m1380 1 c0 -11 -4 -20
-10 -20 -5 0 -10 9 -10 20 0 11 5 20 10 20 6 0 10 -9 10 -20z m-1625 -30 c-3
-5 -24 -10 -46 -10 -21 0 -39 5 -39 10 0 6 21 10 46 10 27 0 43 -4 39 -10z
m1935 -2 c0 -4 -18 -8 -40 -8 -22 0 -40 4 -40 10 0 5 18 9 40 8 22 -1 40 -5
40 -10z m-663 -223 c-6 -77 -11 -169 -11 -204 l2 -65 -20 27 c-36 49 -144 49
-193 -1 l-26 -26 12 27 c7 16 31 42 53 58 32 24 35 29 16 24 -14 -4 -30 -12
-37 -17 -12 -10 -30 8 -19 19 3 4 6 1 6 -6 0 -7 5 -9 11 -6 6 4 8 14 5 22 -3
8 -1 11 4 8 6 -3 10 -1 10 6 0 6 15 37 32 68 30 52 45 106 26 94 -5 -2 -6 -14
-2 -25 4 -15 3 -18 -6 -13 -9 6 -11 4 -5 -6 6 -10 5 -11 -3 -4 -13 12 -5 55
10 55 5 0 6 10 3 23 -4 12 7 1 25 -25 37 -56 48 -64 63 -49 8 8 6 25 -6 63
-13 41 -14 55 -4 67 9 12 9 13 0 7 -29 -17 -11 4 19 23 25 15 34 17 40 8 4 -7
1 -76 -5 -152z m-1277 135 c-36 -12 -70 -12 -70 0 0 6 21 10 48 9 38 -1 42 -2
22 -9z m1936 -2 c6 -10 -43 -9 -76 2 -20 7 -15 8 23 7 27 0 50 -4 53 -9z
m-1302 -104 c-6 -35 -5 -37 89 -107 42 -32 47 -47 15 -47 -13 0 -30 -4 -37 -9
-12 -8 -8 -11 15 -17 37 -9 114 -61 114 -77 0 -8 -3 -8 -8 -2 -19 27 -127 31
-173 8 l-35 -19 -12 161 c-7 88 -12 174 -12 190 l1 30 24 -40 c18 -29 23 -48
19 -71z m-354 86 c0 -5 -4 -10 -10 -10 -5 0 -10 5 -10 10 0 6 5 10 10 10 6 0
10 -4 10 -10z m1330 0 c0 -5 -4 -10 -10 -10 -5 0 -10 5 -10 10 0 6 5 10 10 10
6 0 10 -4 10 -10z m-1350 -40 c0 -5 -5 -10 -11 -10 -5 0 -7 5 -4 10 3 6 8 10
11 10 2 0 4 -4 4 -10z m-255 -25 c-36 -17 -69 -19 -60 -5 4 6 9 9 13 6 4 -2
16 0 27 5 34 13 52 8 20 -6z m1893 5 c12 0 22 -5 22 -11 0 -12 -55 -3 -80 13
-11 7 -8 8 10 4 14 -3 35 -6 48 -6z m-420 -50 c-7 -10 -14 -17 -17 -15 -4 4
18 35 25 35 2 0 -1 -9 -8 -20z m-1164 -6 c3 -8 2 -12 -4 -9 -6 3 -10 10 -10
16 0 14 7 11 14 -7z m-264 -19 c0 -4 -67 -35 -76 -35 -2 0 -4 4 -4 8 0 5 17
13 38 19 20 6 38 11 40 12 1 0 2 -1 2 -4z m1494 -7 c-4 -7 -16 -26 -27 -42
-16 -23 -18 -32 -9 -47 18 -28 14 -34 -7 -15 -11 10 -25 15 -30 11 -7 -3 -11
2 -11 14 0 12 7 21 15 21 8 0 27 16 42 35 28 35 40 45 27 23z m329 -5 c15 -3
27 -9 27 -14 0 -14 -22 -10 -60 12 -19 11 -26 17 -15 14 11 -4 32 -9 48 -12z
m-743 -7 c0 -3 -4 -8 -10 -11 -5 -3 -10 -1 -10 4 0 6 5 11 10 11 6 0 10 -2 10
-4z m-30 -46 c0 -5 -5 -10 -11 -10 -5 0 -7 5 -4 10 3 6 8 10 11 10 2 0 4 -4 4
-10z m-700 -21 c0 -12 -4 -17 -11 -14 -5 4 -20 -1 -32 -12 l-22 -18 18 22 c11
12 16 27 12 32 -3 7 2 11 14 11 15 0 21 -6 21 -21z m-349 -14 c-24 -14 -46
-23 -49 -20 -7 6 -5 8 38 28 53 25 61 20 11 -8z m399 -70 c-7 -47 -15 -83 -18
-81 -2 3 2 43 9 90 7 47 15 83 18 81 2 -3 -2 -43 -9 -90z m1380 76 c23 -10 37
-21 32 -25 -9 -6 -82 30 -82 40 0 7 6 5 50 -15z m-1010 -35 c0 -12 -5 -7 -19
24 -11 24 -11 24 3 6 9 -11 16 -24 16 -30z m1020 -46 c0 -5 -5 -10 -11 -10 -5
0 -7 5 -4 10 3 6 8 10 11 10 2 0 4 -4 4 -10z m-1760 -4 c0 -3 -4 -8 -10 -11
-5 -3 -10 -1 -10 4 0 6 5 11 10 11 6 0 10 -2 10 -4z m1720 0 c0 -3 -4 -8 -10
-11 -5 -3 -10 -1 -10 4 0 6 5 11 10 11 6 0 10 -2 10 -4z m-1659 -57 c-18 -16
-36 -28 -39 -25 -3 4 -3 7 -1 9 2 2 17 13 33 25 42 32 46 27 7 -9z m624 -39
c0 -50 -2 -55 -24 -58 -30 -5 -41 12 -41 64 0 48 6 56 40 52 23 -3 25 -7 25
-58z m420 38 c8 -37 -9 -92 -28 -96 -30 -6 -47 17 -47 63 0 49 4 55 41 55 22
0 30 -6 34 -22z m462 15 c-4 -4 5 -19 20 -35 15 -15 23 -28 19 -28 -11 0 -55
54 -49 62 2 5 7 8 10 8 4 0 3 -3 0 -7z m123 -7 c0 -3 -4 -8 -10 -11 -5 -3 -10
-1 -10 4 0 6 5 11 10 11 6 0 10 -2 10 -4z m-1086 -39 c8 -21 6 -31 -7 -44 -15
-16 -18 -15 -37 2 -24 22 -25 38 -4 60 21 21 37 15 48 -18z m166 -17 c0 -14
-32 -41 -43 -37 -25 8 -31 35 -12 63 l18 28 18 -23 c11 -13 19 -27 19 -31z
m398 38 c28 -28 2 -88 -33 -74 -27 10 -14 86 15 86 3 0 11 -5 18 -12z m-152
-24 c9 -35 -18 -63 -40 -44 -16 13 -22 51 -9 63 16 16 43 6 49 -19z m307 -36
c26 -5 50 -14 53 -19 12 -19 -25 -19 -75 1 -28 11 -63 20 -76 20 -14 0 -25 4
-25 9 0 10 44 6 123 -11z m-563 -62 c0 -2 -7 -7 -16 -10 -8 -3 -12 -2 -9 4 6
10 25 14 25 6z m253 -3 c3 -5 -34 -7 -81 -5 -153 4 -170 8 -45 10 67 1 124 -1
126 -5z m662 -63 c3 -5 1 -10 -4 -10 -6 0 -11 5 -11 10 0 6 2 10 4 10 3 0 8
-4 11 -10z m-1115 -91 l0 -59 -72 0 c-88 0 -86 9 2 11 36 1 59 4 52 6 -6 3
-10 8 -8 12 3 4 -14 7 -37 8 -32 1 -37 -1 -22 -8 14 -6 8 -7 -22 -4 -33 3 -43
0 -46 -13 -2 -9 -4 10 -5 42 -1 33 2 62 7 65 5 3 41 5 80 3 l71 -4 0 -59z
m787 -1 c-2 -13 -4 -5 -4 17 -1 22 1 32 4 23 2 -10 2 -28 0 -40z m333 -6 c0
-15 -2 -15 -10 -2 -13 20 -13 33 0 25 6 -3 10 -14 10 -23z m-1555 -114 c0 -52
-2 -58 -20 -57 -11 0 -14 3 -7 6 7 2 12 21 11 41 0 21 -3 31 -6 25 -2 -7 -12
-13 -21 -12 -11 0 -12 2 -4 6 6 2 9 9 6 15 -4 6 0 14 7 19 10 6 8 9 -9 9 -13
0 -21 -4 -18 -9 10 -15 -5 -41 -23 -42 -12 0 -12 -2 4 -9 16 -7 17 -9 3 -9 -9
-1 -18 -6 -20 -13 -6 -17 -28 0 -27 20 0 14 2 13 9 -3 8 -19 9 -19 9 2 1 12
-3 25 -9 28 -19 12 -10 35 13 34 16 -1 17 -3 5 -6 -20 -5 -13 -33 8 -33 8 0
14 10 14 25 0 21 -5 25 -27 25 -18 0 -23 3 -16 8 7 4 36 4 65 -2 l53 -9 0 -59z
m1610 72 c-27 -12 -43 -12 -25 0 8 5 22 9 30 9 10 0 8 -3 -5 -9z m-131 -72 c1
-64 7 -60 -99 -73 l-50 -6 0 60 0 61 45 5 c25 4 52 8 60 10 38 8 43 1 44 -57z
m-1341 35 c-7 -2 -19 -2 -25 0 -7 3 -2 5 12 5 14 0 19 -2 13 -5z m1085 -10
c-10 -2 -26 -2 -35 0 -10 3 -2 5 17 5 19 0 27 -2 18 -5z m-145 -10 c-7 -2 -19
-2 -25 0 -7 3 -2 5 12 5 14 0 19 -2 13 -5z m-1118 -49 c-16 -17 -45 -19 -45
-3 0 6 7 9 15 5 9 -3 15 0 15 9 0 9 6 12 15 9 12 -5 12 -8 0 -20z"/>
<path d="M1235 1906 c34 -17 70 -19 100 -6 15 6 7 9 -30 9 -27 1 -61 4 -75 6
-22 5 -21 3 5 -9z"/>
<path d="M1222 1321 c-8 -5 8 -6 40 -4 73 6 83 11 23 12 -27 0 -56 -3 -63 -8z"/>
<path d="M1659 1693 c-13 -16 -12 -17 4 -4 9 7 17 15 17 17 0 8 -8 3 -21 -13z"/>
<path d="M1563 1444 c-3 -8 -1 -25 4 -37 8 -18 10 -16 9 16 -1 41 -4 45 -13
21z"/>
<path d="M840 539 c0 -5 7 -9 16 -9 8 0 23 -7 32 -16 15 -15 14 -16 -6 -10
-15 5 -22 3 -23 -6 0 -7 -4 -4 -9 7 -8 19 -9 19 -9 -2 -1 -13 1 -23 3 -23 2 0
12 -3 22 -7 12 -4 15 -3 10 5 -5 9 7 12 43 12 44 0 51 3 51 20 0 15 -7 20 -27
21 -25 0 -26 1 -8 9 14 6 3 8 -37 8 -32 0 -58 -5 -58 -9z m113 -36 c-7 -2 -21
-2 -30 0 -10 3 -4 5 12 5 17 0 24 -2 18 -5z"/>
<path d="M639 1853 c-13 -16 -12 -17 4 -4 9 7 17 15 17 17 0 8 -8 3 -21 -13z"/>
<path d="M694 1819 c-10 -12 -18 -23 -16 -25 9 -15 -1 -16 -12 -1 -12 16 -14
16 -20 2 -3 -9 -2 -13 4 -10 6 3 10 -1 10 -9 0 -10 -6 -13 -17 -9 -11 4 -14 3
-9 -5 12 -20 31 -13 67 25 18 20 28 32 20 28 -11 -6 -13 -4 -8 8 8 22 4 21
-19 -4z"/>
<path d="M1835 1815 c9 -5 30 -22 45 -37 32 -31 43 -34 58 -15 7 8 6 16 -5 26
-12 11 -14 11 -11 0 1 -8 -2 -14 -7 -14 -5 0 -9 7 -8 15 2 10 1 11 -3 2 -5
-10 -9 -10 -20 -1 -11 9 -12 15 -2 28 10 13 10 14 -2 4 -15 -14 -34 -18 -26
-5 2 4 -5 8 -16 8 -19 0 -19 -1 -3 -11z"/>
<path d="M2170 1811 c0 -6 4 -13 10 -16 6 -3 7 1 4 9 -7 18 -14 21 -14 7z"/>
<path d="M540 1779 c0 -5 5 -7 10 -4 6 3 10 8 10 11 0 2 -4 4 -10 4 -5 0 -10
-5 -10 -11z"/>
<path d="M2030 1781 c0 -6 4 -13 10 -16 6 -3 7 1 4 9 -7 18 -14 21 -14 7z"/>
<path d="M1693 824 c0 -23 1 -24 9 -10 7 12 7 21 0 28 -6 6 -9 0 -9 -18z"/>
</g>
</svg>
